<mxfile host="app.diagrams.net" agent="Mozilla/5.0 (Macintosh; Intel Mac OS X 10_15_7) AppleWebKit/537.36 (KHTML, like Gecko) Chrome/133.0.0.0 Safari/537.36" version="26.0.16">
  <diagram name="Seite-1" id="r95zw7-B-S0A9r7h02m8">
    <mxGraphModel dx="1219" dy="451" grid="0" gridSize="10" guides="1" tooltips="1" connect="1" arrows="1" fold="1" page="0" pageScale="1" pageWidth="827" pageHeight="1169" math="0" shadow="0">
      <root>
        <mxCell id="0" />
        <mxCell id="1" style="" parent="0" />
        <mxCell id="7EFssaYVpA_n2hoAjp4g-147" value="" style="rounded=0;whiteSpace=wrap;html=1;strokeColor=none;fillColor=none;movable=1;resizable=1;rotatable=1;deletable=1;editable=1;locked=0;connectable=1;" parent="1" vertex="1">
          <mxGeometry x="-119" y="199" width="515" height="271" as="geometry" />
        </mxCell>
        <mxCell id="7EFssaYVpA_n2hoAjp4g-39" value="event stream" style="line;strokeWidth=1;html=1;dashed=1;dashPattern=1 1;labelPosition=left;verticalLabelPosition=middle;align=right;verticalAlign=middle;spacingTop=0;spacingRight=2;strokeColor=#808080;" parent="1" vertex="1">
          <mxGeometry y="344" width="380" height="10" as="geometry" />
        </mxCell>
        <mxCell id="7EFssaYVpA_n2hoAjp4g-37" value="student&lt;div&gt;subscribed&lt;/div&gt;&lt;div&gt;to course&lt;/div&gt;" style="whiteSpace=wrap;aspect=fixed;rounded=1;fillColor=#FFB570;strokeColor=#CF935B;fontColor=#000000;fontFamily=Helvetica;fontSize=8;html=1;fontStyle=0;arcSize=5;imageHeight=24;" parent="1" vertex="1">
          <mxGeometry x="130" y="328" width="42" height="42" as="geometry" />
        </mxCell>
        <mxCell id="7EFssaYVpA_n2hoAjp4g-38" value="student&lt;div&gt;registered&lt;/div&gt;" style="whiteSpace=wrap;html=1;aspect=fixed;rounded=1;fillColor=#FFB570;strokeColor=#CF935B;fontColor=#000000;fontFamily=Helvetica;fontSize=8;arcSize=5;imageHeight=24;" parent="1" vertex="1">
          <mxGeometry x="70" y="328" width="42" height="42" as="geometry" />
        </mxCell>
        <mxCell id="7EFssaYVpA_n2hoAjp4g-41" value="course&lt;div&gt;defined&lt;/div&gt;" style="whiteSpace=wrap;html=1;aspect=fixed;rounded=1;fillColor=#FFB570;strokeColor=#CF935B;fontColor=#000000;fontFamily=Helvetica;fontSize=8;arcSize=5;imageHeight=24;" parent="1" vertex="1">
          <mxGeometry x="10" y="328" width="42" height="42" as="geometry" />
        </mxCell>
        <mxCell id="DbxpfdoCNsHGOSzbfEZo-4" value="" style="endArrow=open;html=1;rounded=0;fontSize=12;startSize=6;endSize=6;curved=1;dashed=1;strokeWidth=1;spacingLeft=0;spacingRight=0;endFill=0;fillColor=#f5f5f5;strokeColor=#CCCCCC;" parent="1" edge="1">
          <mxGeometry relative="1" as="geometry">
            <mxPoint x="-105" y="444" as="sourcePoint" />
            <mxPoint x="379" y="443" as="targetPoint" />
          </mxGeometry>
        </mxCell>
        <mxCell id="DbxpfdoCNsHGOSzbfEZo-5" value="time" style="edgeLabel;resizable=0;html=1;;align=center;verticalAlign=middle;spacingLeft=0;spacingRight=0;fontFamily=Helvetica;fontColor=#999999;" parent="DbxpfdoCNsHGOSzbfEZo-4" connectable="0" vertex="1">
          <mxGeometry relative="1" as="geometry" />
        </mxCell>
        <mxCell id="Ay2A0g3-Rm1teo7eCQYA-1" value="student&lt;div&gt;registered&lt;/div&gt;" style="whiteSpace=wrap;html=1;aspect=fixed;rounded=1;fillColor=#FFB570;strokeColor=#CF935B;fontColor=#000000;fontFamily=Helvetica;fontSize=8;arcSize=5;imageHeight=24;" vertex="1" parent="1">
          <mxGeometry x="190" y="328" width="42" height="42" as="geometry" />
        </mxCell>
        <mxCell id="Ay2A0g3-Rm1teo7eCQYA-3" value="student&lt;div&gt;subscribed&lt;/div&gt;&lt;div&gt;to course&lt;/div&gt;" style="whiteSpace=wrap;aspect=fixed;rounded=1;fillColor=#FFB570;strokeColor=#CF935B;fontColor=#000000;fontFamily=Helvetica;fontSize=8;html=1;fontStyle=0;arcSize=5;imageHeight=24;" vertex="1" parent="1">
          <mxGeometry x="250" y="328" width="42" height="42" as="geometry" />
        </mxCell>
        <mxCell id="Ay2A0g3-Rm1teo7eCQYA-50" value="Buttons" parent="0" />
        <UserObject label="course &quot;c1&quot; exists?" link="data:action/json,{&quot;actions&quot;:[{&quot;toggle&quot;:{&quot;cells&quot;:[&quot;layer_course1_exists&quot;]}}]}" id="Ay2A0g3-Rm1teo7eCQYA-51">
          <mxCell style="rounded=1;whiteSpace=wrap;html=1;arcSize=3;fillColor=#f5f5f5;strokeColor=#666666;gradientColor=#b3b3b3;shadow=1;" vertex="1" parent="Ay2A0g3-Rm1teo7eCQYA-50">
            <mxGeometry x="-30" y="223" width="76" height="42" as="geometry" />
          </mxCell>
        </UserObject>
        <UserObject label="student &quot;s1&quot; exists?" link="data:action/json,{&quot;actions&quot;:[{&quot;toggle&quot;:{&quot;cells&quot;:[&quot;layer_student1_exists&quot;]}}]}" id="Ay2A0g3-Rm1teo7eCQYA-52">
          <mxCell style="rounded=1;whiteSpace=wrap;html=1;arcSize=3;fillColor=#f5f5f5;strokeColor=#666666;gradientColor=#b3b3b3;shadow=1;" vertex="1" parent="Ay2A0g3-Rm1teo7eCQYA-50">
            <mxGeometry x="57" y="223" width="76" height="42" as="geometry" />
          </mxCell>
        </UserObject>
        <UserObject label="student &quot;s2&quot; exists?" link="data:action/json,{&quot;actions&quot;:[{&quot;toggle&quot;:{&quot;cells&quot;:[&quot;layer_student2_exists&quot;]}}]}" id="Ay2A0g3-Rm1teo7eCQYA-54">
          <mxCell style="rounded=1;whiteSpace=wrap;html=1;arcSize=3;fillColor=#f5f5f5;strokeColor=#666666;gradientColor=#b3b3b3;shadow=1;" vertex="1" parent="Ay2A0g3-Rm1teo7eCQYA-50">
            <mxGeometry x="144" y="223" width="76" height="42" as="geometry" />
          </mxCell>
        </UserObject>
        <UserObject label="course &quot;c1&quot; subscriptions" link="data:action/json,{&quot;actions&quot;:[{&quot;toggle&quot;:{&quot;cells&quot;:[&quot;layer_course1_subscriptions&quot;]}}]}" id="Ay2A0g3-Rm1teo7eCQYA-55">
          <mxCell style="rounded=1;whiteSpace=wrap;html=1;arcSize=3;fillColor=#f5f5f5;strokeColor=#666666;gradientColor=#b3b3b3;shadow=1;" vertex="1" parent="Ay2A0g3-Rm1teo7eCQYA-50">
            <mxGeometry x="233" y="223" width="76" height="42" as="geometry" />
          </mxCell>
        </UserObject>
        <object label="Course1 subscriptions" id="layer_course1_subscriptions">
          <mxCell style="locked=1;" parent="0" visible="0" />
        </object>
        <mxCell id="Ay2A0g3-Rm1teo7eCQYA-20" value="course&lt;div&gt;defined&lt;/div&gt;" style="whiteSpace=wrap;html=1;aspect=fixed;rounded=1;fillColor=#FFFFCC;strokeColor=#FF0000;fontColor=none;fontFamily=Helvetica;fontSize=8;arcSize=5;imageHeight=24;noLabel=1;fillStyle=auto;opacity=60;strokeWidth=2;" vertex="1" parent="layer_course1_subscriptions">
          <mxGeometry x="131" y="328" width="42" height="42" as="geometry" />
        </mxCell>
        <mxCell id="Ay2A0g3-Rm1teo7eCQYA-21" value="course&lt;div&gt;defined&lt;/div&gt;" style="whiteSpace=wrap;html=1;aspect=fixed;rounded=1;fillColor=#FFFFCC;strokeColor=#FF0000;fontColor=none;fontFamily=Helvetica;fontSize=8;arcSize=5;imageHeight=24;noLabel=1;fillStyle=auto;opacity=60;strokeWidth=2;" vertex="1" parent="layer_course1_subscriptions">
          <mxGeometry x="251" y="328" width="42" height="42" as="geometry" />
        </mxCell>
        <UserObject label="course &quot;c1&quot; subscriptions" link="data:action/json,{&quot;actions&quot;:[{&quot;toggle&quot;:{&quot;cells&quot;:[&quot;layer_course1_subscriptions&quot;]}}]}" id="Ay2A0g3-Rm1teo7eCQYA-61">
          <mxCell style="rounded=1;whiteSpace=wrap;html=1;arcSize=3;fillColor=#fff2cc;strokeColor=#d6b656;gradientColor=#ffd966;shadow=1;" vertex="1" parent="layer_course1_subscriptions">
            <mxGeometry x="233" y="223" width="76" height="42" as="geometry" />
          </mxCell>
        </UserObject>
        <object label="Student2 exists" id="layer_student2_exists">
          <mxCell style="locked=1;" parent="0" visible="0" />
        </object>
        <mxCell id="Ay2A0g3-Rm1teo7eCQYA-25" value="course&lt;div&gt;defined&lt;/div&gt;" style="whiteSpace=wrap;html=1;aspect=fixed;rounded=1;fillColor=#FFFFCC;strokeColor=#FF0000;fontColor=none;fontFamily=Helvetica;fontSize=8;arcSize=5;imageHeight=24;noLabel=1;fillStyle=auto;opacity=60;strokeWidth=2;" vertex="1" parent="layer_student2_exists">
          <mxGeometry x="191" y="328" width="42" height="42" as="geometry" />
        </mxCell>
        <UserObject label="student &quot;s2&quot; exists?" link="data:action/json,{&quot;actions&quot;:[{&quot;toggle&quot;:{&quot;cells&quot;:[&quot;layer_student2_exists&quot;]}}]}" id="Ay2A0g3-Rm1teo7eCQYA-59">
          <mxCell style="rounded=1;whiteSpace=wrap;html=1;arcSize=3;fillColor=#fff2cc;strokeColor=#d6b656;gradientColor=#ffd966;shadow=1;" vertex="1" parent="layer_student2_exists">
            <mxGeometry x="144" y="223" width="76" height="42" as="geometry" />
          </mxCell>
        </UserObject>
        <object label="Student1 exists" id="layer_student1_exists">
          <mxCell style="locked=1;" parent="0" visible="0" />
        </object>
        <mxCell id="Ay2A0g3-Rm1teo7eCQYA-23" value="course&lt;div&gt;defined&lt;/div&gt;" style="whiteSpace=wrap;html=1;aspect=fixed;rounded=1;fillColor=#FFFFCC;strokeColor=#FF0000;fontColor=none;fontFamily=Helvetica;fontSize=8;arcSize=5;imageHeight=24;noLabel=1;fillStyle=auto;opacity=60;strokeWidth=2;" vertex="1" parent="layer_student1_exists">
          <mxGeometry x="70" y="328" width="42" height="42" as="geometry" />
        </mxCell>
        <UserObject label="student &quot;s1&quot; exists?" link="data:action/json,{&quot;actions&quot;:[{&quot;toggle&quot;:{&quot;cells&quot;:[&quot;layer_student1_exists&quot;]}}]}" id="Ay2A0g3-Rm1teo7eCQYA-58">
          <mxCell style="rounded=1;whiteSpace=wrap;html=1;arcSize=3;fillColor=#fff2cc;strokeColor=#d6b656;gradientColor=#ffd966;shadow=1;" vertex="1" parent="layer_student1_exists">
            <mxGeometry x="57" y="223" width="76" height="42" as="geometry" />
          </mxCell>
        </UserObject>
        <object label="Course1 exists" id="layer_course1_exists">
          <mxCell style="locked=1;" parent="0" visible="0" />
        </object>
        <mxCell id="Ay2A0g3-Rm1teo7eCQYA-10" value="course&lt;div&gt;defined&lt;/div&gt;" style="whiteSpace=wrap;html=1;aspect=fixed;rounded=1;fillColor=#FFFFCC;strokeColor=#FF0000;fontColor=none;fontFamily=Helvetica;fontSize=8;arcSize=5;imageHeight=24;noLabel=1;fillStyle=auto;opacity=60;strokeWidth=2;" vertex="1" parent="layer_course1_exists">
          <mxGeometry x="10" y="328" width="42" height="42" as="geometry" />
        </mxCell>
        <UserObject label="course &quot;c1&quot; exists?" link="data:action/json,{&quot;actions&quot;:[{&quot;toggle&quot;:{&quot;cells&quot;:[&quot;layer_course1_exists&quot;]}}]}" id="Ay2A0g3-Rm1teo7eCQYA-57">
          <mxCell style="rounded=1;whiteSpace=wrap;html=1;arcSize=3;fillColor=#fff2cc;strokeColor=#d6b656;gradientColor=#ffd966;shadow=0;" vertex="1" parent="layer_course1_exists">
            <mxGeometry x="-30" y="223" width="76" height="42" as="geometry" />
          </mxCell>
        </UserObject>
        <mxCell id="Ay2A0g3-Rm1teo7eCQYA-11" value="Tags" style="" parent="0" />
        <mxCell id="Ay2A0g3-Rm1teo7eCQYA-12" value="course:&lt;div&gt;c1&lt;/div&gt;" style="shape=stencil(pVPtDoMgDHwa/iOEbH83N9/DKU5iJwbcdG8/FDQ6vxJNTEiv9UqPK6K+TsOCI4JDXfCoRPSGCElEzWNzGji1CMM2rGzoYRfrUsmMVyIuXaHIU65E2WTpHeGLqWk+6j/CKHsq+c7jUaJLJwIgkiCVCe3pbgJgOyESzP5YhE3rSaJLv+Snma62dO7W31E0z9wRgMgHBGd2lKGXzlF47DgH3cHxNwnbMQrewRCB1HzlOQ0+edEWXfCPcY5UfMNY1qUrXTcLFuyJCA2CKzutjk59DiAKPRR/LF2nZL9do93zNthXJ2y1m0jUonbzW+AH);whiteSpace=wrap;html=1;fillColor=#fff2cc;strokeColor=#d6b656;rotation=300;fontSize=6;spacingRight=9;spacing=2;" vertex="1" parent="Ay2A0g3-Rm1teo7eCQYA-11">
          <mxGeometry x="-10" y="361" width="35.21" height="36.05" as="geometry" />
        </mxCell>
        <mxCell id="Ay2A0g3-Rm1teo7eCQYA-13" value="student:&lt;div&gt;s1&lt;/div&gt;" style="shape=stencil(pVPtDoMgDHwa/iOEbH83N9/DKU5iJwbcdG8/FDQ6vxJNTEiv9UqPK6K+TsOCI4JDXfCoRPSGCElEzWNzGji1CMM2rGzoYRfrUsmMVyIuXaHIU65E2WTpHeGLqWk+6j/CKHsq+c7jUaJLJwIgkiCVCe3pbgJgOyESzP5YhE3rSaJLv+Snma62dO7W31E0z9wRgMgHBGd2lKGXzlF47DgH3cHxNwnbMQrewRCB1HzlOQ0+edEWXfCPcY5UfMNY1qUrXTcLFuyJCA2CKzutjk59DiAKPRR/LF2nZL9do93zNthXJ2y1m0jUonbzW+AH);whiteSpace=wrap;html=1;fillColor=#fff2cc;strokeColor=#d6b656;rotation=300;fontSize=6;spacingRight=9;spacing=2;" vertex="1" parent="Ay2A0g3-Rm1teo7eCQYA-11">
          <mxGeometry x="50" y="361" width="35.21" height="36.05" as="geometry" />
        </mxCell>
        <mxCell id="Ay2A0g3-Rm1teo7eCQYA-14" value="course:&lt;div&gt;c1&lt;/div&gt;" style="shape=stencil(pVPtDoMgDHwa/iOEbH83N9/DKU5iJwbcdG8/FDQ6vxJNTEiv9UqPK6K+TsOCI4JDXfCoRPSGCElEzWNzGji1CMM2rGzoYRfrUsmMVyIuXaHIU65E2WTpHeGLqWk+6j/CKHsq+c7jUaJLJwIgkiCVCe3pbgJgOyESzP5YhE3rSaJLv+Snma62dO7W31E0z9wRgMgHBGd2lKGXzlF47DgH3cHxNwnbMQrewRCB1HzlOQ0+edEWXfCPcY5UfMNY1qUrXTcLFuyJCA2CKzutjk59DiAKPRR/LF2nZL9do93zNthXJ2y1m0jUonbzW+AH);whiteSpace=wrap;html=1;fillColor=#fff2cc;strokeColor=#d6b656;rotation=300;fontSize=6;spacingRight=9;spacing=2;" vertex="1" parent="Ay2A0g3-Rm1teo7eCQYA-11">
          <mxGeometry x="110" y="361" width="35.21" height="36.05" as="geometry" />
        </mxCell>
        <mxCell id="Ay2A0g3-Rm1teo7eCQYA-15" value="student:&lt;div&gt;s1&lt;/div&gt;" style="shape=stencil(pVPtDoMgDHwa/iOEbH83N9/DKU5iJwbcdG8/FDQ6vxJNTEiv9UqPK6K+TsOCI4JDXfCoRPSGCElEzWNzGji1CMM2rGzoYRfrUsmMVyIuXaHIU65E2WTpHeGLqWk+6j/CKHsq+c7jUaJLJwIgkiCVCe3pbgJgOyESzP5YhE3rSaJLv+Snma62dO7W31E0z9wRgMgHBGd2lKGXzlF47DgH3cHxNwnbMQrewRCB1HzlOQ0+edEWXfCPcY5UfMNY1qUrXTcLFuyJCA2CKzutjk59DiAKPRR/LF2nZL9do93zNthXJ2y1m0jUonbzW+AH);whiteSpace=wrap;html=1;fillColor=#fff2cc;strokeColor=#d6b656;rotation=300;fontSize=6;spacingRight=9;spacing=2;" vertex="1" parent="Ay2A0g3-Rm1teo7eCQYA-11">
          <mxGeometry x="134" y="361" width="35.21" height="36.05" as="geometry" />
        </mxCell>
        <mxCell id="Ay2A0g3-Rm1teo7eCQYA-16" value="student:&lt;div&gt;s2&lt;/div&gt;" style="shape=stencil(pVPtDoMgDHwa/iOEbH83N9/DKU5iJwbcdG8/FDQ6vxJNTEiv9UqPK6K+TsOCI4JDXfCoRPSGCElEzWNzGji1CMM2rGzoYRfrUsmMVyIuXaHIU65E2WTpHeGLqWk+6j/CKHsq+c7jUaJLJwIgkiCVCe3pbgJgOyESzP5YhE3rSaJLv+Snma62dO7W31E0z9wRgMgHBGd2lKGXzlF47DgH3cHxNwnbMQrewRCB1HzlOQ0+edEWXfCPcY5UfMNY1qUrXTcLFuyJCA2CKzutjk59DiAKPRR/LF2nZL9do93zNthXJ2y1m0jUonbzW+AH);whiteSpace=wrap;html=1;fillColor=#fff2cc;strokeColor=#d6b656;rotation=300;fontSize=6;spacingRight=9;spacing=2;" vertex="1" parent="Ay2A0g3-Rm1teo7eCQYA-11">
          <mxGeometry x="170" y="361" width="35.21" height="36.05" as="geometry" />
        </mxCell>
        <mxCell id="Ay2A0g3-Rm1teo7eCQYA-17" value="course:&lt;div&gt;c1&lt;/div&gt;" style="shape=stencil(pVPtDoMgDHwa/iOEbH83N9/DKU5iJwbcdG8/FDQ6vxJNTEiv9UqPK6K+TsOCI4JDXfCoRPSGCElEzWNzGji1CMM2rGzoYRfrUsmMVyIuXaHIU65E2WTpHeGLqWk+6j/CKHsq+c7jUaJLJwIgkiCVCe3pbgJgOyESzP5YhE3rSaJLv+Snma62dO7W31E0z9wRgMgHBGd2lKGXzlF47DgH3cHxNwnbMQrewRCB1HzlOQ0+edEWXfCPcY5UfMNY1qUrXTcLFuyJCA2CKzutjk59DiAKPRR/LF2nZL9do93zNthXJ2y1m0jUonbzW+AH);whiteSpace=wrap;html=1;fillColor=#fff2cc;strokeColor=#d6b656;rotation=300;fontSize=6;spacingRight=9;spacing=2;" vertex="1" parent="Ay2A0g3-Rm1teo7eCQYA-11">
          <mxGeometry x="230" y="361" width="35.21" height="36.05" as="geometry" />
        </mxCell>
        <mxCell id="Ay2A0g3-Rm1teo7eCQYA-18" value="student:&lt;div&gt;s2&lt;/div&gt;" style="shape=stencil(pVPtDoMgDHwa/iOEbH83N9/DKU5iJwbcdG8/FDQ6vxJNTEiv9UqPK6K+TsOCI4JDXfCoRPSGCElEzWNzGji1CMM2rGzoYRfrUsmMVyIuXaHIU65E2WTpHeGLqWk+6j/CKHsq+c7jUaJLJwIgkiCVCe3pbgJgOyESzP5YhE3rSaJLv+Snma62dO7W31E0z9wRgMgHBGd2lKGXzlF47DgH3cHxNwnbMQrewRCB1HzlOQ0+edEWXfCPcY5UfMNY1qUrXTcLFuyJCA2CKzutjk59DiAKPRR/LF2nZL9do93zNthXJ2y1m0jUonbzW+AH);whiteSpace=wrap;html=1;fillColor=#fff2cc;strokeColor=#d6b656;rotation=300;fontSize=6;spacingRight=9;spacing=2;" vertex="1" parent="Ay2A0g3-Rm1teo7eCQYA-11">
          <mxGeometry x="254" y="361" width="35.21" height="36.05" as="geometry" />
        </mxCell>
      </root>
    </mxGraphModel>
  </diagram>
</mxfile>
